      <svg xmlns="http://www.w3.org/2000/svg" width="140" height="80" viewBox="0 0 480 244">
        <path fill="#fff" 
        stroke="" stroke-width="2"
      stroke-linecap="round"  stroke-linejoin="round"
      d="M328.222,63.822c8.32-3.266,16.606-4.758,25.193-4.396c29.659,1.256,53.872,24.17,56.789,53.734
      c3.133,31.714-18.742,59.949-50.339,64.992c-32.836,5.24-64.281-18.545-68.209-51.564c-0.301-2.521-0.44-5.036-0.436-7.569
      c0.008-30.115-0.006-60.229,0.008-90.347c0-9.654,7.066-17.518,16.627-18.564c9.187-1.004,17.712,5.115,19.976,14.284
      c0.374,1.521,0.384,3.042,0.384,4.576C328.222,40.447,328.222,51.934,328.222,63.822z M373.461,119.13
      c0.04-12.342-10.2-22.56-22.616-22.565c-12.265-0.003-22.465,10.072-22.623,22.344c-0.154,12.226,10.17,22.646,22.535,22.735
      C363.1,141.729,373.424,131.499,373.461,119.13z"
      />
    <path fill="#FFDC00" d="M235.458,96.407c-8.818,0.576-17.319,8.646-19.173,17.824c-2.048,10.146,2.501,20.201,11.382,25.126
      c9.113,5.056,19.737,3.638,27.524-3.683c10.895-10.229,27.879-5.669,31.357,8.529c1.645,6.713,0.061,12.877-4.979,17.667
      c-17.068,16.225-37.286,21.589-59.777,14.949c-22.552-6.659-36.884-22.198-41.743-45.213
      c-7.163-33.96,14.195-65.625,48.247-71.853c20.363-3.726,38.312,2.026,53.209,16.507c7.633,7.428,7.538,18.961,0.062,26.486
      c-9.752,9.826-19.541,19.613-29.365,29.365c-7.414,7.373-19.034,7.406-26.313,0.164c-7.394-7.355-7.325-18.977,0.167-26.508
      C229.104,102.708,232.177,99.672,235.458,96.407z M196.471,148.786l0.104-0.165l-0.157-0.023L196.471,148.786z"/>
    <path fill="#fff" 
    stroke="" stroke-width="2"
      stroke-linecap="round"  stroke-linejoin="round"
      d="M123.582,120.708c8.958-17.102,17.695-33.79,26.439-50.476c6.04-11.529,19.564-14.4,29.217-6.203
      c6.387,5.42,8.155,14.792,4.064,22.71c-7.577,14.656-15.274,29.247-22.926,43.87c-6.691,12.77-13.403,25.539-20.095,38.322
      c-3.539,6.744-9.082,10.449-16.728,10.473c-7.659,0.035-13.262-3.657-16.792-10.385c-14.367-27.375-28.695-54.771-43.018-82.172
      c-4.844-9.265-1.494-20.467,7.492-25.24c9.326-4.952,20.516-1.437,25.479,8.034c8.497,16.208,16.969,32.425,25.456,48.64
      C122.536,118.974,122.962,119.643,123.582,120.708z"/>
    <path fill="#fff" 
    stroke="" stroke-width="2"
      stroke-linecap="round"  stroke-linejoin="round"
      d="M238.846,209.004c-4.339,0-8.681,0.04-13.02-0.023c-3.615-0.055-5.951-1.869-6.311-4.705
      c-0.492-3.857,1.871-6.461,6.08-6.516c5.786-0.066,11.569-0.014,17.356-0.014c0.546,0,1.088,0.014,1.627-0.01
      c0.704-0.024,1.492,0.131,1.566-0.967c0.094-1.364-0.884-1.108-1.645-1.108c-6.057-0.015-12.11,0.021-18.17-0.022
      c-4.041-0.035-6.737-2.648-6.852-6.496c-0.121-4.166,2.587-7.035,6.801-7.047c8.499-0.044,16.995-0.044,25.491,0
      c4.613,0.023,7.842,3.266,7.867,7.815c0.023,3.892,0.008,7.771,0,11.657c0,4.838-2.301,7.289-7.234,7.397
      C247.887,209.079,243.361,209.004,238.846,209.004z"/>
    <path fill="#fff" 
    stroke="" stroke-width="2"
      stroke-linecap="round"  stroke-linejoin="round"
      d="M238.876,224.509c-2.349,0-4.701,0.034-7.051-0.014c-3.433-0.077-6.031-2.69-6.274-6.218
      c-0.234-3.405,2.112-6.838,5.405-7.01c5.317-0.297,10.668-0.291,15.983-0.059c3.189,0.135,5.688,3.662,5.49,6.989
      c-0.195,3.438-2.896,6.209-6.231,6.296C243.76,224.553,241.32,224.509,238.876,224.509z"/>
    <path fill="#fff" 
    stroke="" stroke-width="2"
      stroke-linecap="round"  stroke-linejoin="round"
      d="M32.819,121.551c7.825,6.48,11.274,14.615,10.992,24.641c-0.308,10.935-0.152,21.883-0.143,32.83
      c0.005,9.899,6.872,17.078,16.782,17.638c3.564,0.198,5.993,2.55,5.917,5.735c-0.078,3.342-2.596,5.487-6.419,5.465
      c-15.283-0.103-27.91-13.586-27.499-29.006c0.309-11.475,0.297-22.957,0.236-34.44c-0.05-9.44-6.516-16.29-15.995-17.312
      c-0.717-0.076-1.442-0.106-2.151-0.238c-2.853-0.532-4.711-2.943-4.525-5.844c0.172-2.754,2.225-4.875,4.997-5.167
      c12.103-1.275,17.745-7.539,17.698-19.798c-0.051-12.388-0.078-24.775-0.307-37.16c-0.283-15.21,12.728-28.703,27.725-28.543
      c4.554,0.047,7.33,3.567,5.846,7.477c-0.844,2.225-2.459,3.446-4.888,3.649c-11.35,0.947-17.438,7.576-17.423,18.967
      c0.015,12.027-0.128,24.061,0.145,36.083C44.031,106.602,40.543,114.848,32.819,121.551z"/>
    <path fill="#fff" 
    stroke="" stroke-width="2"
      stroke-linecap="round"  stroke-linejoin="round"
      d="M438.449,121.559c-8.003-6.971-11.331-15.534-11.035-25.894c0.34-12.113,0.172-24.243,0.151-36.366
      c-0.018-10.154-6.703-17.147-16.909-17.818c-3.618-0.236-5.846-2.528-5.693-5.858c0.151-3.183,2.459-5.208,6.018-5.278
      c14.542-0.29,27.76,12.617,27.793,27.309c0.029,13.297-0.151,26.594-0.139,39.888c0.003,5.982,2.096,11.135,6.854,14.979
      c2.855,2.306,6.245,3.125,9.84,3.316c3.726,0.195,5.804,2.092,5.901,5.341c0.104,3.373-1.921,5.426-5.736,5.809
      c-10.847,1.089-16.903,7.752-16.873,18.688c0.023,11.21,0.148,22.431,0.165,33.642c0.03,15.307-11.389,27.541-26.588,28.541
      c-4.588,0.297-7.501-2.107-7.215-5.969c0.212-2.979,2.356-5.013,5.53-5.23c10.635-0.77,17.064-7.583,17.052-18.178
      c-0.018-11.221-0.099-22.431-0.168-33.653C427.33,135.369,431.039,127.678,438.449,121.559z"/>
    <path fill="#FFFFFF" d="M195.804,147.809c-9.795-12.197-13.755-26.105-10.656-41.391c4.352-21.456,17.523-35.435,38.734-40.781
      c16.327-4.109,31.351-0.271,44.481,10.456c-22.889-10.328-44.422-8.191-62.341,9.553
      C188.138,103.351,185.904,124.855,195.804,147.809z"/>
    <path fill="#FFFFFF" d="M240.748,98.489c-2.348,4.992-5.793,9.312-8.579,14.04c-1.647,2.798-3.465,5.493-5.26,8.196
      c-0.49,0.736-0.768,2.145-2.132,1.409c-1.024-0.552-1.476-1.664-1.218-2.792c0.217-0.943,0.6-1.956,1.208-2.688
      c5.016-6.028,10.102-12.002,15.187-17.973c0.142-0.17,0.485-0.164,0.741-0.238L240.748,98.489z"/>
      </svg>
